<svg width="32" height="32" viewBox="0 0 32 32" fill="none" xmlns="http://www.w3.org/2000/svg">
<mask id="mask0_30_920" style="mask-type:alpha" maskUnits="userSpaceOnUse" x="0" y="0" width="32" height="32">
<rect width="32" height="32" fill="#D9D9D9" style="fill:#D9D9D9;fill:color(display-p3 0.8510 0.8510 0.8510);fill-opacity:1;"/>
</mask>
<g mask="url(#mask0_30_920)">
<path d="M10.6667 15.6666V9.99996C10.6667 9.4444 10.8611 8.97218 11.25 8.58329C11.6389 8.1944 12.1111 7.99996 12.6667 7.99996C13.2222 7.99996 13.6944 8.1944 14.0833 8.58329C14.4722 8.97218 14.6667 9.4444 14.6667 9.99996V15.6666C14.6667 16.2222 14.4722 16.6944 14.0833 17.0833C13.6944 17.4722 13.2222 17.6666 12.6667 17.6666C12.1111 17.6666 11.6389 17.4722 11.25 17.0833C10.8611 16.6944 10.6667 16.2222 10.6667 15.6666ZM17.3333 15.3666V4.66663C17.3333 4.11107 17.5278 3.63885 17.9167 3.24996C18.3056 2.86107 18.7778 2.66663 19.3333 2.66663C19.8889 2.66663 20.3611 2.86107 20.75 3.24996C21.1389 3.63885 21.3333 4.11107 21.3333 4.66663V15.3666C21.3333 16.0333 21.1278 16.5333 20.7167 16.8666C20.3056 17.2 19.8444 17.3666 19.3333 17.3666C18.8222 17.3666 18.3611 17.2 17.95 16.8666C17.5389 16.5333 17.3333 16.0333 17.3333 15.3666ZM4 19.9666V15.3333C4 14.7777 4.19444 14.3055 4.58333 13.9166C4.97222 13.5277 5.44444 13.3333 6 13.3333C6.55556 13.3333 7.02778 13.5277 7.41667 13.9166C7.80556 14.3055 8 14.7777 8 15.3333V19.9666C8 20.6333 7.79444 21.1333 7.38333 21.4666C6.97222 21.8 6.51111 21.9666 6 21.9666C5.48889 21.9666 5.02778 21.8 4.61667 21.4666C4.20556 21.1333 4 20.6333 4 19.9666ZM7.2 28.0666C6.62222 28.0666 6.21667 27.7944 5.98333 27.25C5.75 26.7055 5.84444 26.2222 6.26667 25.8L11.7333 20.3333C11.9778 20.0889 12.2722 19.9555 12.6167 19.9333C12.9611 19.9111 13.2667 20.0222 13.5333 20.2666L17.3333 23.5333L24.8 16.0666H24C23.6222 16.0666 23.3056 15.9388 23.05 15.6833C22.7944 15.4277 22.6667 15.1111 22.6667 14.7333C22.6667 14.3555 22.7944 14.0388 23.05 13.7833C23.3056 13.5277 23.6222 13.4 24 13.4H28C28.3778 13.4 28.6944 13.5277 28.95 13.7833C29.2056 14.0388 29.3333 14.3555 29.3333 14.7333V18.7333C29.3333 19.1111 29.2056 19.4277 28.95 19.6833C28.6944 19.9389 28.3778 20.0666 28 20.0666C27.6222 20.0666 27.3056 19.9389 27.05 19.6833C26.7944 19.4277 26.6667 19.1111 26.6667 18.7333V17.9333L18.3333 26.2666C18.0889 26.5111 17.7944 26.6444 17.45 26.6666C17.1056 26.6889 16.8 26.5777 16.5333 26.3333L12.7333 23.0666L8.13333 27.6666C8.02222 27.7777 7.88333 27.8722 7.71667 27.95C7.55 28.0277 7.37778 28.0666 7.2 28.0666Z" fill="#EF2D61" style="fill:#EF2D61;fill:color(display-p3 0.9373 0.1765 0.3804);fill-opacity:1;"/>
</g>
</svg>
