<svg width="32" height="32" viewBox="0 0 32 32" fill="none" xmlns="http://www.w3.org/2000/svg">
<mask id="mask0_30_908" style="mask-type:alpha" maskUnits="userSpaceOnUse" x="0" y="0" width="32" height="32">
<rect width="32" height="32" fill="#D9D9D9" style="fill:#D9D9D9;fill:color(display-p3 0.8510 0.8510 0.8510);fill-opacity:1;"/>
</mask>
<g mask="url(#mask0_30_908)">
<path d="M29.3334 29.3334L24.0001 24H10.6667C9.93341 24 9.30564 23.7389 8.78341 23.2167C8.26119 22.6945 8.00008 22.0667 8.00008 21.3334V20H22.6667C23.4001 20 24.0279 19.7389 24.5501 19.2167C25.0723 18.6945 25.3334 18.0667 25.3334 17.3334V8.00002H26.6667C27.4001 8.00002 28.0279 8.26113 28.5501 8.78335C29.0723 9.30558 29.3334 9.93335 29.3334 10.6667V29.3334ZM5.33341 16.2334L6.90008 14.6667H20.0001V5.33335H5.33341V16.2334ZM2.66675 22.6667V5.33335C2.66675 4.60002 2.92786 3.97224 3.45008 3.45002C3.9723 2.9278 4.60008 2.66669 5.33341 2.66669H20.0001C20.7334 2.66669 21.3612 2.9278 21.8834 3.45002C22.4056 3.97224 22.6667 4.60002 22.6667 5.33335V14.6667C22.6667 15.4 22.4056 16.0278 21.8834 16.55C21.3612 17.0722 20.7334 17.3334 20.0001 17.3334H8.00008L2.66675 22.6667Z" fill="#EF2D61" style="fill:#EF2D61;fill:color(display-p3 0.9373 0.1765 0.3804);fill-opacity:1;"/>
</g>
</svg>
