<svg width="32" height="32" viewBox="0 0 32 32" fill="none" xmlns="http://www.w3.org/2000/svg">
<mask id="mask0_30_914" style="mask-type:alpha" maskUnits="userSpaceOnUse" x="0" y="0" width="32" height="32">
<rect width="32" height="32" fill="#D9D9D9" style="fill:#D9D9D9;fill:color(display-p3 0.8510 0.8510 0.8510);fill-opacity:1;"/>
</mask>
<g mask="url(#mask0_30_914)">
<path d="M15.9999 18L18.8333 20.1666C18.9666 20.2778 19.0999 20.2833 19.2333 20.1833C19.3666 20.0833 19.411 19.9555 19.3666 19.8L18.2666 16.2666L21.2333 13.9333C21.3444 13.8222 21.3777 13.6944 21.3333 13.55C21.2888 13.4055 21.1888 13.3333 21.0333 13.3333H17.4666L16.3333 9.76664C16.2888 9.61108 16.1777 9.53331 15.9999 9.53331C15.8221 9.53331 15.711 9.61108 15.6666 9.76664L14.5333 13.3333H10.9666C10.811 13.3333 10.7055 13.4055 10.6499 13.55C10.5944 13.6944 10.6221 13.8222 10.7333 13.9333L13.6666 16.2666L12.5666 19.8333C12.5221 19.9889 12.5666 20.1166 12.6999 20.2166C12.8333 20.3166 12.9666 20.3111 13.0999 20.2L15.9999 18ZM15.9999 29.2C15.8444 29.2 15.6999 29.1889 15.5666 29.1666C15.4333 29.1444 15.2999 29.1111 15.1666 29.0666C12.1666 28.0666 9.7777 26.2166 7.99992 23.5166C6.22214 20.8166 5.33325 17.9111 5.33325 14.8V8.49997C5.33325 7.94442 5.49436 7.44442 5.81659 6.99997C6.13881 6.55553 6.55547 6.2333 7.06659 6.0333L15.0666 3.0333C15.3777 2.92219 15.6888 2.86664 15.9999 2.86664C16.311 2.86664 16.6221 2.92219 16.9333 3.0333L24.9333 6.0333C25.4444 6.2333 25.861 6.55553 26.1833 6.99997C26.5055 7.44442 26.6666 7.94442 26.6666 8.49997V14.8C26.6666 17.9111 25.7777 20.8166 23.9999 23.5166C22.2221 26.2166 19.8333 28.0666 16.8333 29.0666C16.6999 29.1111 16.5666 29.1444 16.4333 29.1666C16.2999 29.1889 16.1555 29.2 15.9999 29.2ZM15.9999 26.5333C18.311 25.8 20.2221 24.3333 21.7333 22.1333C23.2444 19.9333 23.9999 17.4889 23.9999 14.8V8.49997L15.9999 5.49997L7.99992 8.49997V14.8C7.99992 17.4889 8.75547 19.9333 10.2666 22.1333C11.7777 24.3333 13.6888 25.8 15.9999 26.5333Z" fill="#EF2D61" style="fill:#EF2D61;fill:color(display-p3 0.9373 0.1765 0.3804);fill-opacity:1;"/>
</g>
</svg>
